<svg width="34" height="116" viewBox="0 0 34 116" fill="none" xmlns="http://www.w3.org/2000/svg">
<path d="M3.8073 0.633536C2.98573 0.739964 2.406 1.49225 2.51243 2.31381C2.61886 3.13537 3.37114 3.7151 4.1927 3.60868L3.8073 0.633536ZM2.51803 114.232C2.64608 115.05 3.41339 115.61 4.23186 115.482L17.5696 113.395C18.3881 113.267 18.9478 112.5 18.8197 111.681C18.6917 110.863 17.9244 110.303 17.1059 110.431L5.25011 112.286L3.39525 100.43C3.2672 99.6119 2.49989 99.0522 1.68142 99.1803C0.862953 99.3083 0.303257 100.076 0.431309 100.894L2.51803 114.232ZM4.1927 3.60868C8.9899 2.98724 14.3911 5.04248 19.1045 9.7603C23.8071 14.4672 27.7443 21.7634 29.5079 31.3488C33.0313 50.4995 27.8523 78.7546 2.78814 113.116L5.21186 114.884C30.6022 80.0754 36.1734 50.9985 32.4584 30.8059C30.6027 20.7197 26.4234 12.8414 21.2268 7.63997C16.0411 2.44942 9.76035 -0.137638 3.8073 0.633536L4.1927 3.60868Z" fill="black"/>
</svg>
