<?xml version="1.0" encoding="iso-8859-1"?>
<!-- Generator: Adobe Illustrator 16.0.0, SVG Export Plug-In . SVG Version: 6.00 Build 0)  -->
<!DOCTYPE svg PUBLIC "-//W3C//DTD SVG 1.1//EN" "http://www.w3.org/Graphics/SVG/1.1/DTD/svg11.dtd">
<svg version="1.1" id="Capa_1" xmlns="http://www.w3.org/2000/svg" xmlns:xlink="http://www.w3.org/1999/xlink" x="0px" y="0px"
	 width="485.204px" height="485.203px" viewBox="0 0 485.204 485.203" style="enable-background:new 0 0 485.204 485.203;"
	 xml:space="preserve">
<g>
	<path d="M0,363.915l121.304,121.288H0V363.915z M303.499,10.148c-23.69,23.678-4.472,81.291,42.909,128.662
		c47.356,47.371,104.958,66.56,128.647,42.902c23.695-23.694,4.476-81.312-42.886-128.678
		C384.79,5.663,327.188-13.544,303.499,10.148z M372.856,198.147L153.405,417.582l42.884,42.908l239.647-239.659
		C416.12,218.666,394.562,211.236,372.856,198.147z M324.967,160.253c-7.407-7.391-14.095-14.972-20.228-22.656L89.083,353.25
		l42.883,42.887l215.659-215.643C339.92,174.333,332.34,167.641,324.967,160.253z M264.374,49.286L24.759,288.929l42.881,42.886
		l219.448-219.451C273.998,90.641,266.535,69.098,264.374,49.286z"/>
</g>
<g>
</g>
<g>
</g>
<g>
</g>
<g>
</g>
<g>
</g>
<g>
</g>
<g>
</g>
<g>
</g>
<g>
</g>
<g>
</g>
<g>
</g>
<g>
</g>
<g>
</g>
<g>
</g>
<g>
</g>
</svg>
